# xmcd
#
# Track frame offsets:
# 150
# 13609
# 26717
# 39135
# 50952
# 62747
# 71405
# 82462
# 94065
# 103392
# 113885
# 129005
# 139462
# 157112
#
# Disc length: 2273 seconds
#
#
# Revision: 4
# Processed by: cddbd v1.5.2PL0 Copyright (c) Steve Scherf et al.
# Submitted via: FreeRIP 2.951 
#
DISCID=ca08df0e
DTITLE=Various Artist - Country Music 1
DYEAR=1997
DGENRE=Country
TTITLE0=Kenny Rogers - Ruby Don t Take Your Love To Town
TTITLE1=Bob Wills - Faded Love
TTITLE2=Johnny Lee - This Time
TTITLE3=Patsy Cline - Walking After Midnight
TTITLE4=Willie Nelson - Touch Me
TTITLE5=Waylon Jennings - Abilene
TTITLE6=Johnny Paycheck - Take This Job And Shove It
TTITLE7=George Jones - White Lightning
TTITLE8=Faron Young - Hello Walls
TTITLE9=Tex Williams - Battle Of New Orleans
TTITLE10=Ane Murray - There Goes My Everything
TTITLE11=Stonewall Jackson - Waterloo
TTITLE12=The Wilsons - Not A Day Goes By
TTITLE13=Frankie Laine - High Noon
EXTD=
EXTT0=
EXTT1=
EXTT2=
EXTT3=
EXTT4=
EXTT5=
EXTT6=
EXTT7=
EXTT8=
EXTT9=
EXTT10=
EXTT11=
EXTT12=
EXTT13=
PLAYORDER=
